<?xml version="1.0" encoding="UTF-8" standalone="no"?>
<svg
   xmlns:dc="http://purl.org/dc/elements/1.1/"
   xmlns:cc="http://creativecommons.org/ns#"
   xmlns:rdf="http://www.w3.org/1999/02/22-rdf-syntax-ns#"
   xmlns:svg="http://www.w3.org/2000/svg"
   xmlns="http://www.w3.org/2000/svg"
   viewBox="0 0 793.70081 1122.5197"
   height="1122.5197"
   width="793.70081"
   xml:space="preserve"
   id="svg2"
   version="1.1"><metadata
     id="metadata8"><rdf:RDF><cc:Work
         rdf:about=""><dc:format>image/svg+xml</dc:format><dc:type
           rdf:resource="http://purl.org/dc/dcmitype/StillImage" /></cc:Work></rdf:RDF></metadata><defs
     id="defs6"><clipPath
       id="clipPath20"
       clipPathUnits="userSpaceOnUse"><path
         id="path18"
         d="M 11.9906,824.9315 V 16.95831 H 583.285 V 824.9315 Z" /></clipPath><clipPath
       id="clipPath26"
       clipPathUnits="userSpaceOnUse"><path
         id="path24"
         d="M 583.285,824.9315 V 16.95831 H 11.9906 V 824.9315 Z" /></clipPath><clipPath
       id="clipPath32"
       clipPathUnits="userSpaceOnUse"><path
         id="path30"
         d="M 11.9906,11.9906 H 583.285 V 829.8992 H 11.9906 Z" /></clipPath></defs><g
     transform="matrix(1.3333333,0,0,-1.3333333,0,1122.5197)"
     id="g10"><g
       id="g12" /><g
       id="g14"><g
         clip-path="url(#clipPath20)"
         id="g16"><g
           clip-path="url(#clipPath26)"
           id="g22"><g
             clip-path="url(#clipPath32)"
             id="g28"><path
               id="path34"
               style="fill:#f68712;fill-opacity:1;fill-rule:nonzero;stroke:none"
               d="m 145.5582,581.2237 c 0.9386,0 1.8734,-0.1756 2.8053,-0.5278 0.9309,-0.3522 1.763,-0.8657 2.4972,-1.5403 0.7332,-0.6747 1.3272,-1.4962 1.7812,-2.4636 0.4549,-0.9684 0.6823,-2.0682 0.6823,-3.3005 0,-1.4664 -0.3157,-2.738 -0.9462,-3.8168 -0.6306,-1.0777 -1.4521,-1.881 -2.4636,-2.4088 l -1.9358,2.7726 c 0.4098,0.1756 0.7515,0.3992 1.0231,0.6708 0.2706,0.2716 0.4904,0.5682 0.6593,0.8906 0.1689,0.3225 0.286,0.6526 0.3522,0.9905 0.0662,0.3368 0.0989,0.667 0.0989,0.9894 0,0.6901 -0.1392,1.2908 -0.4175,1.8043 -0.2793,0.5134 -0.6382,0.9386 -1.0787,1.2754 -0.4396,0.3379 -0.9386,0.5874 -1.4952,0.7486 -0.5576,0.1612 -1.122,0.2419 -1.6949,0.2419 -0.6152,0 -1.2092,-0.095 -1.7812,-0.286 -0.572,-0.191 -1.0778,-0.4655 -1.5183,-0.8254 -0.4395,-0.3589 -0.7889,-0.7917 -1.0451,-1.2975 -0.2563,-0.5058 -0.3849,-1.0739 -0.3849,-1.7054 0,-0.3225 0.0403,-0.6555 0.121,-1.001 0.0806,-0.3445 0.2053,-0.6737 0.3742,-0.9895 0.169,-0.3157 0.3887,-0.6056 0.6594,-0.8695 0.2716,-0.2639 0.6055,-0.476 1.0019,-0.6372 l -1.738,-2.9483 c -0.572,0.2342 -1.0855,0.5826 -1.5404,1.0452 -0.4549,0.4616 -0.8359,0.9933 -1.144,1.595 -0.308,0.6008 -0.5432,1.239 -0.7034,1.9137 -0.1613,0.6747 -0.2428,1.3349 -0.2428,1.9799 0,1.1295 0.2313,2.167 0.6938,3.1133 0.4617,0.9453 1.074,1.7591 1.836,2.4415 0.7629,0.6823 1.6286,1.2102 2.596,1.5835 0.9683,0.3743 1.9511,0.5614 2.9482,0.5614" /><path
               id="path36"
               style="fill:#f68712;fill-opacity:1;fill-rule:nonzero;stroke:none"
               d="m 145.4043,559.1959 c -0.6017,0 -1.1843,-0.0883 -1.7486,-0.2639 -0.5653,-0.1756 -1.0672,-0.4367 -1.5077,-0.7812 -0.4396,-0.3445 -0.7918,-0.7735 -1.0557,-1.287 -0.2639,-0.5134 -0.3954,-1.0998 -0.3954,-1.7601 0,-0.6891 0.1382,-1.2898 0.4175,-1.8033 0.2783,-0.5134 0.6411,-0.9386 1.0893,-1.2764 0.4472,-0.3369 0.953,-0.5902 1.5173,-0.7591 0.5643,-0.168 1.1401,-0.2525 1.7274,-0.2525 0.6008,0 1.1843,0.0874 1.7486,0.264 0.5653,0.1756 1.0634,0.4395 1.4962,0.7917 0.4329,0.3522 0.7774,0.7812 1.0336,1.287 0.2573,0.5058 0.3859,1.0893 0.3859,1.7486 0,0.69 -0.1363,1.287 -0.407,1.7937 -0.2716,0.5058 -0.6276,0.9309 -1.0672,1.2755 -0.4405,0.3445 -0.9424,0.6017 -1.5077,0.7697 -0.5643,0.1689 -1.1401,0.2533 -1.7265,0.2533 m -7.9196,-4.0701 c 0,1.1593 0.2265,2.215 0.6824,3.168 0.4539,0.9539 1.0518,1.7678 1.7927,2.4425 0.74,0.6746 1.5874,1.1986 2.5404,1.5729 0.953,0.3734 1.9357,0.5605 2.9482,0.5605 1.0269,0 2.0164,-0.1939 2.9704,-0.5825 0.953,-0.3887 1.7927,-0.9319 2.5182,-1.6287 0.7266,-0.6958 1.3053,-1.5211 1.7381,-2.4741 0.4328,-0.954 0.6497,-1.9953 0.6497,-3.1239 0,-1.1584 -0.2284,-2.215 -0.6823,-3.168 -0.4549,-0.954 -1.0567,-1.7678 -1.8043,-2.4425 -0.7476,-0.6746 -1.5989,-1.1948 -2.5519,-1.5614 -0.9539,-0.3666 -1.9213,-0.5499 -2.9041,-0.5499 -1.0269,0 -2.0163,0.1938 -2.9693,0.5825 -0.954,0.3887 -1.7937,0.9281 -2.5193,1.6171 -0.7265,0.6891 -1.309,1.5106 -1.7495,2.4636 -0.4396,0.954 -0.6594,1.9953 -0.6594,3.1239" /><path
               id="path38"
               style="fill:#f68712;fill-opacity:1;fill-rule:nonzero;stroke:none"
               d="m 145.4043,538.9258 c -0.6017,0 -1.1843,-0.0883 -1.7486,-0.2639 -0.5653,-0.1766 -1.0672,-0.4367 -1.5077,-0.7812 -0.4396,-0.3445 -0.7918,-0.7735 -1.0557,-1.287 -0.2639,-0.5134 -0.3954,-1.0998 -0.3954,-1.7601 0,-0.6891 0.1382,-1.2899 0.4175,-1.8033 0.2783,-0.5134 0.6411,-0.9386 1.0893,-1.2764 0.4472,-0.3369 0.953,-0.5902 1.5173,-0.7592 0.5643,-0.1679 1.1401,-0.2524 1.7274,-0.2524 0.6008,0 1.1843,0.0874 1.7486,0.264 0.5653,0.1756 1.0634,0.4395 1.4962,0.7917 0.4329,0.3522 0.7774,0.7812 1.0336,1.287 0.2573,0.5058 0.3859,1.0893 0.3859,1.7486 0,0.69 -0.1363,1.287 -0.407,1.7927 -0.2716,0.5068 -0.6276,0.9319 -1.0672,1.2765 -0.4405,0.3445 -0.9424,0.6017 -1.5077,0.7697 -0.5643,0.1689 -1.1401,0.2533 -1.7265,0.2533 m -7.9196,-4.0701 c 0,1.1593 0.2265,2.215 0.6824,3.168 0.4539,0.9539 1.0518,1.7678 1.7927,2.4425 0.74,0.6746 1.5874,1.1986 2.5404,1.572 0.953,0.3743 1.9357,0.5614 2.9482,0.5614 1.0269,0 2.0164,-0.1939 2.9704,-0.5825 0.953,-0.3887 1.7927,-0.9319 2.5182,-1.6287 0.7266,-0.6958 1.3053,-1.5211 1.7381,-2.4751 0.4328,-0.953 0.6497,-1.9943 0.6497,-3.1238 0,-1.1584 -0.2284,-2.2141 -0.6823,-3.1671 -0.4549,-0.954 -1.0567,-1.7678 -1.8043,-2.4425 -0.7476,-0.6747 -1.5989,-1.1948 -2.5519,-1.5624 -0.9539,-0.3656 -1.9213,-0.5499 -2.9041,-0.5499 -1.0269,0 -2.0163,0.1948 -2.9693,0.5835 -0.954,0.3887 -1.7937,0.928 -2.5193,1.6171 -0.7265,0.6891 -1.309,1.5106 -1.7495,2.4636 -0.4396,0.954 -0.6594,1.9952 -0.6594,3.1239" /><path
               id="path40"
               style="fill:#f68712;fill-opacity:1;fill-rule:nonzero;stroke:none"
               d="m 145.8004,517.7602 v -2.9482 c 0,-0.4252 0.1833,-0.7918 0.5499,-1.0999 0.3666,-0.308 0.9021,-0.4616 1.6056,-0.4616 0.3666,0 0.6823,0.048 0.9463,0.143 0.2639,0.095 0.4837,0.2236 0.6602,0.3848 0.1757,0.1613 0.3043,0.3446 0.3849,0.55 0.0806,0.2053 0.1209,0.4107 0.1209,0.6161 v 2.8158 z m -8.1835,3.6076 h 15.6193 v -6.6652 c 0,-0.7486 -0.1535,-1.4339 -0.4616,-2.0577 -0.3081,-0.6228 -0.7121,-1.1583 -1.2102,-1.6056 -0.499,-0.4472 -1.0634,-0.7994 -1.6939,-1.0557 -0.6305,-0.2562 -1.2687,-0.3848 -1.9146,-0.3848 -0.6891,0 -1.3494,0.1209 -1.9799,0.3628 -0.6305,0.2418 -1.1948,0.5796 -1.6939,1.0115 -0.4981,0.4328 -0.8944,0.9568 -1.1881,1.573 -0.2927,0.6161 -0.4396,1.2985 -0.4396,2.0461 v 3.168 h -5.0375 z" /><path
               id="path42"
               style="fill:#f68712;fill-opacity:1;fill-rule:nonzero;stroke:none"
               d="m 140.7843,493.3367 h -3.168 v 10.9782 h 15.6203 v -10.7805 h -3.168 v 7.172 h -3.0365 v -6.1595 h -2.9252 v 6.1595 h -3.3226 z" /><path
               id="path44"
               style="fill:#f68712;fill-opacity:1;fill-rule:nonzero;stroke:none"
               d="m 145.8004,483.7207 v -3.2995 c 0,-0.4261 0.2015,-0.7927 0.6046,-1.1008 0.4031,-0.3081 0.9204,-0.4616 1.5509,-0.4616 0.6459,0 1.1593,0.1756 1.5403,0.5278 0.381,0.3522 0.572,0.7342 0.572,1.144 v 3.1901 z m -8.1835,3.6076 h 15.6193 v -7.0395 c 0,-0.7333 -0.1535,-1.4118 -0.4616,-2.0346 -0.3081,-0.6238 -0.7121,-1.1622 -1.2102,-1.6171 -0.499,-0.4549 -1.0634,-0.81 -1.6939,-1.0672 -0.6305,-0.2563 -1.2687,-0.3849 -1.9146,-0.3849 -0.4837,0 -0.9492,0.0586 -1.3964,0.1756 -0.4482,0.1181 -0.8695,0.286 -1.2649,0.5058 -0.3964,0.2207 -0.7524,0.4885 -1.0672,0.8033 -0.3157,0.3157 -0.5825,0.6708 -0.8033,1.0672 l -5.8072,-3.4319 v 4.0701 l 5.0375,2.9914 v 2.3542 h -5.0375 z" /><path
               id="path46"
               style="fill:#f68712;fill-opacity:1;fill-rule:nonzero;stroke:none"
               d="m 143.6005,460.8479 5.5212,1.8264 -5.5212,1.8695 z m 9.6355,3.4541 v -3.2564 l -15.6193,-5.6978 v 3.6959 l 3.4982,1.2102 v 4.8619 l -3.4982,1.1881 v 3.6959 z" /><path
               id="path48"
               style="fill:#f68712;fill-opacity:1;fill-rule:nonzero;stroke:none"
               d="m 150.0681,440.2828 v 4.7516 h -12.4513 v 3.6085 h 12.4513 v 4.7736 h 3.168 v -13.1337 z" /><path
               id="path50"
               style="fill:#f68712;fill-opacity:1;fill-rule:nonzero;stroke:none"
               d="m 137.6171,431.6908 h 15.61934 v 3.60756 H 137.6171 Z" /><path
               id="path52"
               style="fill:#f68712;fill-opacity:1;fill-rule:nonzero;stroke:none"
               d="m 153.2362,423.0138 -11.0875,-3.6737 11.0875,-3.6297 v -3.8062 l -15.6193,5.9176 v 3.0365 l 15.6193,5.9838 z" /><path
               id="path54"
               style="fill:#f68712;fill-opacity:1;fill-rule:nonzero;stroke:none"
               d="m 143.6005,400.5942 5.5212,1.8263 -5.5212,1.8695 z m 9.6355,3.454 v -3.2563 l -15.6193,-5.6979 v 3.6959 l 3.4982,1.2102 v 4.8619 l -3.4982,1.1881 v 3.6959 z" /><path
               id="path56"
               style="fill:#f68712;fill-opacity:1;fill-rule:nonzero;stroke:none"
               d="m 148.6602,362.3817 c 0.0586,0.0442 0.1689,0.1977 0.3302,0.4617 0.1612,0.2639 0.3301,0.594 0.5057,0.9904 0.1766,0.3963 0.3302,0.8282 0.4626,1.2975 0.1315,0.4703 0.1977,0.9396 0.1977,1.4079 0,1.2908 -0.4328,1.9367 -1.2975,1.9367 -0.2649,0 -0.4847,-0.07 -0.6603,-0.2092 -0.1766,-0.1392 -0.334,-0.3445 -0.4731,-0.6161 -0.1392,-0.2716 -0.2678,-0.6123 -0.3849,-1.0231 -0.118,-0.4108 -0.2495,-0.8868 -0.3963,-1.43 -0.2054,-0.7476 -0.429,-1.4223 -0.6709,-2.024 -0.2418,-0.6008 -0.5432,-1.1104 -0.9021,-1.5288 -0.3599,-0.4175 -0.7956,-0.74 -1.3091,-0.9684 -0.5134,-0.2265 -1.1295,-0.3407 -1.8474,-0.3407 -0.8801,0 -1.6248,0.1651 -2.2333,0.4952 -0.6084,0.3302 -1.0998,0.7668 -1.4741,1.3091 -0.3743,0.5422 -0.6449,1.166 -0.8138,1.8695 -0.1689,0.7044 -0.2534,1.43 -0.2534,2.1786 0,0.5719 0.0442,1.1583 0.1325,1.7591 0.0873,0.6018 0.2159,1.1881 0.3848,1.7601 0.1689,0.572 0.3704,1.1258 0.6046,1.6613 0.2351,0.5355 0.5067,1.0307 0.8139,1.4847 l 3.1469,-1.5836 c -0.0739,-0.0585 -0.2131,-0.2495 -0.4185,-0.572 -0.2054,-0.3224 -0.4107,-0.7226 -0.6161,-1.1986 -0.2054,-0.477 -0.3887,-1.0087 -0.5499,-1.5951 -0.1613,-0.5864 -0.2419,-1.1804 -0.2419,-1.7822 0,-1.2764 0.3887,-1.9136 1.1661,-1.9136 0.2927,0 0.5355,0.095 0.7255,0.286 0.191,0.19 0.3628,0.4539 0.5173,0.7917 0.1536,0.3378 0.2966,0.7371 0.429,1.1987 0.1324,0.4616 0.2783,0.9645 0.4395,1.5068 0.2208,0.7188 0.4588,1.3426 0.716,1.8704 0.2562,0.5279 0.5528,0.9646 0.8906,1.3091 0.3369,0.3445 0.7255,0.6017 1.1661,0.7697 0.4395,0.1689 0.953,0.2533 1.5393,0.2533 0.8215,0 1.5481,-0.1545 2.1786,-0.4625 0.6305,-0.3081 1.1622,-0.7256 1.595,-1.2534 0.4319,-0.5288 0.7592,-1.1402 0.9789,-1.8369 0.2198,-0.6968 0.3302,-1.4338 0.3302,-2.2112 0,-0.5422 -0.0518,-1.0778 -0.1545,-1.6066 -0.1027,-0.5278 -0.2342,-1.0336 -0.3954,-1.5173 -0.1622,-0.4846 -0.3455,-0.9347 -0.55,-1.3532 -0.2063,-0.4184 -0.4107,-0.8032 -0.6161,-1.1545 z" /><path
               id="path58"
               style="fill:#f68712;fill-opacity:1;fill-rule:nonzero;stroke:none"
               d="m 145.4043,352.0004 c -0.6017,0 -1.1843,-0.0883 -1.7486,-0.2639 -0.5653,-0.1766 -1.0672,-0.4367 -1.5077,-0.7812 -0.4396,-0.3445 -0.7918,-0.7735 -1.0557,-1.287 -0.2639,-0.5134 -0.3954,-1.0998 -0.3954,-1.7601 0,-0.6891 0.1382,-1.2899 0.4175,-1.8033 0.2783,-0.5135 0.6411,-0.9386 1.0893,-1.2764 0.4472,-0.3369 0.953,-0.5902 1.5173,-0.7592 0.5643,-0.1679 1.1401,-0.2524 1.7274,-0.2524 0.6008,0 1.1843,0.0874 1.7486,0.264 0.5653,0.1756 1.0634,0.4395 1.4962,0.7917 0.4329,0.3522 0.7774,0.7812 1.0336,1.287 0.2573,0.5058 0.3859,1.0893 0.3859,1.7486 0,0.69 -0.1363,1.287 -0.407,1.7927 -0.2716,0.5068 -0.6276,0.9319 -1.0672,1.2765 -0.4405,0.3445 -0.9424,0.6017 -1.5077,0.7697 -0.5643,0.1689 -1.1401,0.2533 -1.7265,0.2533 m -7.9196,-4.0701 c 0,1.1593 0.2265,2.215 0.6824,3.168 0.4539,0.9539 1.0518,1.7678 1.7927,2.4425 0.74,0.6746 1.5874,1.1986 2.5404,1.5729 0.953,0.3734 1.9357,0.5605 2.9482,0.5605 1.0269,0 2.0164,-0.1939 2.9704,-0.5825 0.953,-0.3887 1.7927,-0.9319 2.5182,-1.6287 0.7266,-0.6958 1.3053,-1.5211 1.7381,-2.4751 0.4328,-0.953 0.6497,-1.9943 0.6497,-3.1238 0,-1.1575 -0.2284,-2.2141 -0.6823,-3.1671 -0.4549,-0.954 -1.0567,-1.7678 -1.8043,-2.4425 -0.7476,-0.6747 -1.5989,-1.1948 -2.5519,-1.5614 -0.9539,-0.3666 -1.9213,-0.5499 -2.9041,-0.5499 -1.0269,0 -2.0163,0.1938 -2.9693,0.5825 -0.954,0.3887 -1.7937,0.928 -2.5193,1.6171 -0.7265,0.6891 -1.309,1.5106 -1.7495,2.4636 -0.4396,0.954 -0.6594,1.9952 -0.6594,3.1239" /><path
               id="path60"
               style="fill:#f68712;fill-opacity:1;fill-rule:nonzero;stroke:none"
               d="m 145.5582,335.4042 c 0.9386,0 1.8734,-0.1756 2.8053,-0.5279 0.9309,-0.3522 1.763,-0.8656 2.4972,-1.5403 0.7332,-0.6747 1.3272,-1.4962 1.7812,-2.4636 0.4549,-0.9683 0.6823,-2.0682 0.6823,-3.3004 0,-1.4665 -0.3157,-2.7391 -0.9462,-3.8168 -0.6306,-1.0778 -1.4521,-1.8811 -2.4636,-2.4089 l -1.9358,2.7726 c 0.4098,0.1756 0.7515,0.3993 1.0231,0.6709 0.2706,0.2716 0.4904,0.5681 0.6593,0.8906 0.1689,0.3224 0.286,0.6526 0.3522,0.9904 0.0662,0.3369 0.0989,0.667 0.0989,0.9895 0,0.69 -0.1392,1.2908 -0.4175,1.8042 -0.2793,0.5135 -0.6382,0.9386 -1.0787,1.2755 -0.4396,0.3378 -0.9386,0.5873 -1.4952,0.7486 -0.5576,0.1612 -1.122,0.2418 -1.6949,0.2418 -0.6152,0 -1.2092,-0.095 -1.7812,-0.286 -0.572,-0.191 -1.0778,-0.4655 -1.5183,-0.8253 -0.4395,-0.359 -0.7889,-0.7918 -1.0451,-1.2976 -0.2563,-0.5057 -0.3849,-1.0739 -0.3849,-1.7054 0,-0.3225 0.0403,-0.6555 0.121,-1.001 0.0806,-0.3445 0.2053,-0.6737 0.3742,-0.9894 0.169,-0.3158 0.3887,-0.6056 0.6594,-0.8695 0.2716,-0.264 0.6055,-0.4761 1.0019,-0.6373 l -1.738,-2.9482 c -0.572,0.2341 -1.0855,0.5825 -1.5404,1.0451 -0.4549,0.4616 -0.8359,0.9933 -1.144,1.595 -0.308,0.6008 -0.5432,1.239 -0.7034,1.9137 -0.1613,0.6747 -0.2428,1.335 -0.2428,1.9799 0,1.1296 0.2313,2.167 0.6938,3.1133 0.4617,0.9453 1.074,1.7592 1.836,2.4415 0.7629,0.6824 1.6286,1.2102 2.596,1.5836 0.9683,0.3742 1.9511,0.5614 2.9482,0.5614" /><path
               id="path62"
               style="fill:#f68712;fill-opacity:1;fill-rule:nonzero;stroke:none"
               d="m 137.6171,312.2372 h 15.61934 v 3.60756 H 137.6171 Z" /><path
               id="path64"
               style="fill:#f68712;fill-opacity:1;fill-rule:nonzero;stroke:none"
               d="m 143.6005,298.1881 5.5212,1.8264 -5.5212,1.8695 z m 9.6355,3.454 v -3.2563 l -15.6193,-5.6978 v 3.6959 l 3.4982,1.2102 v 4.8619 l -3.4982,1.1881 v 3.6959 z" /><path
               id="path66"
               style="fill:#f68712;fill-opacity:1;fill-rule:nonzero;stroke:none"
               d="m 137.6165,287.789 h 15.6193 v -3.6076 h -12.4513 v -7.5683 h -3.168 z" /><path
               id="path68"
               style="fill:#f68712;fill-opacity:1;fill-rule:nonzero;stroke:none"
               d="m 140.7843,260.6661 h -3.168 v 10.9772 h 15.6203 v -10.7795 h -3.168 v 7.172 h -3.0365 v -6.1595 h -2.9252 v 6.1595 h -3.3226 z" /><path
               id="path70"
               style="fill:#50ade5;fill-opacity:1;fill-rule:nonzero;stroke:none"
               d="m 169.5188,581.0472 h 47.3964 v -32.7915 h -11.3476 v 19.6616 h -7.8773 V 551.892 H 187.142 v 16.0253 h -17.6232 z" /><path
               id="path72"
               style="fill:#50ade5;fill-opacity:1;fill-rule:nonzero;stroke:none"
               d="m 169.5189,526.1583 h 47.39641 v 13.12984 H 169.5189 Z" /><path
               id="path74"
               style="fill:#50ade5;fill-opacity:1;fill-rule:nonzero;stroke:none"
               d="m 184.3386,486.4996 c 1.1565,0 2.1248,0.3148 2.9041,0.9425 0.7783,0.6296 1.168,1.4376 1.168,2.4242 v 10.8409 h -7.9436 v -10.3697 c 0,-1.0768 0.334,-1.9866 1.001,-2.7265 0.668,-0.7409 1.6239,-1.1114 2.8705,-1.1114 m 21.4957,14.2076 h -7.2766 v -8.956 c 0,-0.8973 0.2438,-1.7169 0.7342,-2.4569 0.4895,-0.7409 1.4684,-1.1113 2.9367,-1.1113 1.2909,0 2.2141,0.3148 2.7707,0.9424 0.5567,0.6296 0.835,1.3695 0.835,2.2218 z m -24.1656,-27.5399 c -2.1363,0 -3.9723,0.4492 -5.5078,1.3474 -1.5355,0.8983 -2.7928,2.1325 -3.7717,3.7026 -0.9789,1.572 -1.7025,3.4003 -2.1699,5.4877 -0.4674,2.0873 -0.7006,4.2995 -0.7006,6.6325 v 23.4996 h 47.3964 v -27.7415 c 0,-1.6603 -0.356,-3.1642 -1.0672,-4.5116 -0.713,-1.3465 -1.6363,-2.4914 -2.7707,-3.4339 -1.1353,-0.9424 -2.4261,-1.6718 -3.8724,-2.1881 -1.4463,-0.5154 -2.9262,-0.7745 -4.4387,-0.7745 -2.2265,0 -4.3504,0.573 -6.3754,1.7169 -2.0259,1.145 -3.5499,2.8619 -4.573,5.1508 -0.8013,-2.7371 -2.192,-4.9032 -4.1719,-6.4972 -1.9808,-1.5932 -4.6392,-2.3907 -7.9771,-2.3907" /><path
               id="path76"
               style="fill:#50ade5;fill-opacity:1;fill-rule:nonzero;stroke:none"
               d="m 195.4202,450.0059 v -8.2824 c 0,-0.808 0.4444,-1.5585 1.335,-2.2553 0.8897,-0.6958 2.1363,-1.0441 3.7381,-1.0441 1.6459,0 2.9041,0.4049 3.7717,1.2121 0.8685,0.808 1.3023,1.6161 1.3023,2.4242 v 7.9455 z m -25.9017,13.1298 h 47.3974 v -21.9506 c 0,-2.333 -0.4789,-4.4876 -1.4357,-6.4636 -0.9578,-1.9751 -2.2026,-3.67 -3.7381,-5.0836 -1.5356,-1.4146 -3.2937,-2.525 -5.2736,-3.3331 -1.9809,-0.8081 -3.9723,-1.2121 -5.9752,-1.2121 -2.7601,0 -5.3303,0.6055 -7.7103,1.8177 -2.3811,1.2121 -4.3284,2.8954 -5.8409,5.05 l -17.4236,-10.1 v 14.8131 l 14.5531,8.4167 v 4.9157 h -14.5531 z" /><path
               id="path78"
               style="fill:#50ade5;fill-opacity:1;fill-rule:nonzero;stroke:none"
               d="m 169.5189,400.766 h 47.39641 v 13.12984 H 169.5189 Z" /><path
               id="path80"
               style="fill:#50ade5;fill-opacity:1;fill-rule:nonzero;stroke:none"
               d="m 169.5188,388.4449 h 47.3964 V 375.315 h -36.0478 v -21.6818 h -11.3486 z" /><path
               id="path82"
               style="fill:#50ade5;fill-opacity:1;fill-rule:nonzero;stroke:none"
               d="m 169.5188,346.2814 h 47.3964 v -13.1299 h -36.0478 v -21.6818 h -11.3486 z" /><path
               id="path84"
               style="fill:#50ade5;fill-opacity:1;fill-rule:nonzero;stroke:none"
               d="m 187.4762,279.1574 14.6865,4.2419 -14.6865,4.4445 z m 29.4392,10.2344 V 277.4069 L 169.519,260.8432 v 13.3314 l 9.2795,2.8954 v 12.7258 l -9.2795,2.8283 v 13.3995 z" /><path
               id="path86"
               style="fill:#f68712;fill-opacity:1;fill-rule:nonzero;stroke:none"
               d="m 233.3707,422.3143 c -0.1181,-13.9638 7.3216,-26.2309 18.4994,-32.9115 0.6766,0.6939 3.3552,3.9272 3.9886,4.6643 -10.6183,6.1105 -16.5608,15.0703 -16.4505,28.1963 0.1104,13.1299 6.2036,21.9871 16.9236,27.9181 -0.6209,0.7447 -3.2448,4.026 -3.9089,4.7304 -11.2891,-6.4905 -18.9342,-18.6309 -19.0522,-32.5976" /><path
               id="path88"
               style="fill:#80c864;fill-opacity:1;fill-rule:nonzero;stroke:none"
               d="m 312.3971,434.0685 c -0.1017,-0.0221 -0.2044,-0.0442 -0.3061,-0.0662 -1.3628,-0.2947 -2.7573,-0.5192 -4.1709,-0.6613 -0.1181,-0.0153 -0.2371,-0.0278 -0.3551,-0.0364 -0.9703,-0.0941 -1.9492,-0.1478 -2.9348,-0.1661 -0.358,-0.007 -0.7198,-0.0105 -1.0807,-0.008 -0.785,0.007 -1.5633,0.0365 -2.335,0.0922 -1.1065,0.072 -2.1996,0.1929 -3.2755,0.3628 -0.6334,0.094 -1.2629,0.2082 -1.8868,0.3378 -0.6727,2.3714 -1.5403,4.6555 -2.5893,6.8418 -1.4338,2.9789 -3.1977,5.7659 -5.2458,8.3197 -1.8848,2.3513 -4.0154,4.5011 -6.3485,6.4128 -1.9184,1.5672 -3.9722,2.9742 -6.1469,4.1978 -3.0375,1.7112 -6.3044,3.0663 -9.7459,4.0049 -0.3705,0.1017 -0.7467,0.2006 -1.121,0.2889 -1.1343,0.2783 -2.2889,0.5086 -3.4568,0.6958 0.0758,-0.4405 0.1573,-0.8782 0.2418,-1.3129 0.3004,-1.4943 0.6785,-2.9588 1.1267,-4.3917 0.2879,-0.9127 0.6056,-1.8148 0.952,-2.7016 0.3926,-1.0153 0.8273,-2.0115 1.2928,-2.9876 0.4424,-0.9136 0.9107,-1.8109 1.4127,-2.6891 0.4722,-0.832 0.975,-1.6507 1.5067,-2.4472 6.4387,-9.7287 16.7249,-16.701 28.7118,-18.7269 0.1478,-0.024 0.2946,-0.049 0.4424,-0.073 0.7908,-0.1247 1.5912,-0.2303 2.3993,-0.309 0.9971,-0.1036 2.0087,-0.1679 3.0269,-0.2035 0.335,-0.009 0.667,-0.0153 1.002,-0.0182 0.7553,-0.006 1.5077,0.008 2.2534,0.0403 0.9597,0.0413 1.9127,0.1123 2.8532,0.2188 0.0461,0.003 0.0921,0.006 0.1382,0.0125 1.4703,0.1651 2.9175,0.406 4.336,0.716 0.0432,0.009 0.0892,0.0182 0.1315,0.0278 -0.2179,1.4309 -0.4953,2.8398 -0.8283,4.2285" /><path
               id="path90"
               style="fill:#80c864;fill-opacity:1;fill-rule:nonzero;stroke:none"
               d="m 292.2155,434.1759 c -8.6317,2.6747 -16.2172,8.3159 -21.2816,15.9667 -0.4789,0.716 -0.9396,1.4646 -1.3782,2.2381 -0.4472,0.7821 -0.8839,1.6133 -1.3033,2.4799 -0.4367,0.9165 -0.8349,1.8378 -1.1747,2.7169 -0.2936,0.7496 -0.5662,1.5154 -0.8148,2.2899 2.6709,-0.8244 5.2516,-1.9348 7.6921,-3.3091 1.9722,-1.1104 3.8686,-2.405 5.6364,-3.8494 2.1364,-1.7505 4.0951,-3.7294 5.8169,-5.8763 1.8877,-2.3542 3.5058,-4.9205 4.8091,-7.6288 0.7773,-1.619 1.4472,-3.3062 1.9981,-5.0279" /><path
               id="path92"
               style="fill:#f68712;fill-opacity:1;fill-rule:nonzero;stroke:none"
               d="m 244.9464,422.2167 c -0.0854,-10.1662 5.5952,-19.0417 13.9869,-23.5111 2.9367,5.0606 4.9656,10.7172 5.8571,16.7442 -1.5019,-1.2362 -3.43,-1.9684 -5.526,-1.9511 -4.7496,0.0403 -8.5664,3.9223 -8.527,8.6691 0.0403,4.7496 3.9223,8.5673 8.6729,8.527 2.095,-0.0173 4.0106,-0.7822 5.4915,-2.0432 -0.7899,6.0443 -2.7227,11.7344 -5.5769,16.8401 -8.4666,-4.3303 -14.293,-13.1049 -14.3785,-23.275" /><path
               id="path94"
               style="fill:#80c864;fill-opacity:1;fill-rule:nonzero;stroke:none"
               d="m 312.956,413.4762 c -1.4127,0.334 -2.8561,0.5989 -4.3235,0.7889 -0.0452,0.007 -0.0912,0.0105 -0.1373,0.0144 -0.9386,0.1228 -1.8877,0.2092 -2.8465,0.2668 -0.7486,0.0461 -1.5,0.072 -2.2553,0.0787 -0.3359,0.002 -0.667,0.002 -1.002,-0.002 -1.0192,-0.0173 -2.0307,-0.0653 -3.0307,-0.1517 -0.8081,-0.0652 -1.6104,-0.1574 -2.4032,-0.2687 -0.1487,-0.0221 -0.2965,-0.0441 -0.4443,-0.0653 -12.0195,-1.8234 -22.4208,-8.622 -29.0227,-18.2403 -0.5422,-0.7869 -1.0586,-1.5941 -1.548,-2.4213 -0.5173,-0.8695 -1.001,-1.7592 -1.4549,-2.668 -0.4847,-0.9655 -0.9367,-1.954 -1.3456,-2.9617 -0.3627,-0.881 -0.6919,-1.7755 -0.9952,-2.6853 -0.475,-1.4252 -0.8791,-2.8839 -1.2035,-4.3724 -0.0921,-0.4329 -0.1814,-0.8695 -0.2639,-1.3091 1.1709,0.168 2.3292,0.3781 3.4684,0.6382 0.3743,0.0826 0.7534,0.1737 1.1258,0.2697 3.4559,0.881 6.7458,2.1805 9.8121,3.8398 2.1939,1.1872 4.2717,2.5586 6.217,4.0932 2.3638,1.8753 4.5308,3.9895 6.4589,6.3082 2.0902,2.5154 3.8974,5.2727 5.3811,8.2267 1.0825,2.166 1.9923,4.4348 2.7054,6.7938 0.6248,0.1199 1.2563,0.2226 1.8916,0.3061 1.0787,0.1516 2.1728,0.2543 3.2803,0.3071 0.7726,0.0432 1.5519,0.0595 2.3369,0.0528 0.3609,-0.003 0.7227,-0.0125 1.0806,-0.0259 0.9847,-0.0346 1.9636,-0.1046 2.931,-0.215 0.119,-0.0105 0.2371,-0.0249 0.3551,-0.0422 1.4108,-0.166 2.8014,-0.4146 4.1594,-0.7313 0.1017,-0.024 0.2025,-0.048 0.3042,-0.072 0.357,1.383 0.6584,2.7899 0.9002,4.217 -0.0431,0.0105 -0.0892,0.0201 -0.1314,0.0307" /><path
               id="path96"
               style="fill:#80c864;fill-opacity:1;fill-rule:nonzero;stroke:none"
               d="m 265.628,384.2157 c 0.2658,0.7831 0.5489,1.5423 0.8436,2.2592 0.3666,0.9021 0.7793,1.8109 1.2342,2.7169 0.4213,0.8436 0.8685,1.6641 1.332,2.4454 0.4482,0.7553 0.9243,1.5 1.4185,2.2169 5.1921,7.5654 12.8669,13.0761 21.5504,15.6088 -0.5768,-1.7026 -1.2755,-3.3792 -2.0845,-4.9973 -1.3503,-2.6881 -3.0097,-5.2256 -4.9301,-7.5347 -1.7611,-2.1181 -3.7553,-4.0663 -5.9272,-5.7899 -1.7841,-1.407 -3.7025,-2.6699 -5.693,-3.7467 -2.4636,-1.334 -5.0634,-2.4003 -7.7439,-3.1786" /><path
               id="path98"
               style="fill:#f68712;fill-opacity:1;fill-rule:nonzero;stroke:none"
               d="m 290.6721,518.8248 c -12.1519,-6.8802 -19.0561,-19.4553 -19.2519,-32.4767 0.9386,-0.239 5.0779,-0.9415 6.0328,-1.1219 -0.0173,12.2507 4.7707,21.8776 16.1942,28.3442 11.4254,6.4694 22.1425,5.621 32.6399,-0.6968 0.3339,0.9098 1.8637,4.8226 2.142,5.7506 -11.266,6.5309 -25.6022,7.0818 -37.757,0.2006" /><path
               id="path100"
               style="fill:#80c864;fill-opacity:1;fill-rule:nonzero;stroke:none"
               d="m 340.3648,456.263 c -0.0701,0.0777 -0.1401,0.1545 -0.2102,0.2323 -0.9367,1.0326 -1.8282,2.1276 -2.6584,3.2812 -0.0729,0.095 -0.142,0.191 -0.2092,0.2889 -0.5662,0.7937 -1.1027,1.6142 -1.6114,2.4597 -0.1842,0.3062 -0.3685,0.6171 -0.546,0.9319 -0.3868,0.6833 -0.7505,1.3724 -1.0883,2.0682 -0.4914,0.9943 -0.9329,2.001 -1.3235,3.0183 -0.2351,0.595 -0.452,1.1977 -0.6507,1.8023 1.7169,1.7678 3.2611,3.6614 4.6306,5.6633 1.8628,2.7314 3.3945,5.6518 4.5817,8.7027 1.0941,2.8081 1.8906,5.7285 2.3801,8.7046 0.3973,2.4444 0.5893,4.9272 0.5614,7.4224 -0.0364,3.4857 -0.4971,6.9925 -1.404,10.4417 -0.0979,0.3724 -0.2006,0.7476 -0.311,1.1152 -0.3253,1.1219 -0.7034,2.2371 -1.1257,3.3417 -0.3436,-0.285 -0.6824,-0.5749 -1.0154,-0.8656 -1.1449,-1.0068 -2.2237,-2.0663 -3.2409,-3.1709 -0.6459,-0.7054 -1.2688,-1.4319 -1.8638,-2.1757 -0.6824,-0.8474 -1.3273,-1.7227 -1.9406,-2.6133 -0.57,-0.8398 -1.1132,-1.6949 -1.6228,-2.5682 -0.4837,-0.8254 -0.9415,-1.6699 -1.3657,-2.5279 -5.2055,-10.4407 -6.1009,-22.8354 -1.8618,-34.2291 0.0527,-0.1392 0.1055,-0.2793 0.1583,-0.4194 0.287,-0.7476 0.596,-1.4933 0.9309,-2.2323 0.4098,-0.9156 0.859,-1.8235 1.3379,-2.7227 0.1593,-0.2947 0.3205,-0.5855 0.4856,-0.8772 0.3724,-0.6574 0.7601,-1.3023 1.1612,-1.9319 0.5154,-0.81 1.0538,-1.6008 1.6162,-2.3609 0.0259,-0.0384 0.0509,-0.0768 0.0797,-0.1142 0.8781,-1.1901 1.81,-2.3235 2.7879,-3.3964 0.0298,-0.0327 0.0605,-0.0682 0.0902,-0.0998 1.1306,0.904 2.2112,1.8484 3.2477,2.8311" /><path
               id="path102"
               style="fill:#80c864;fill-opacity:1;fill-rule:nonzero;stroke:none"
               d="m 330.367,473.7944 c -1.9991,8.8121 -0.9069,18.2029 3.1872,26.4142 0.381,0.7725 0.7985,1.5451 1.2486,2.3129 0.4539,0.7774 0.9559,1.571 1.4962,2.3676 0.5758,0.8359 1.1737,1.6421 1.7659,2.3763 0.5019,0.6286 1.0288,1.2476 1.5748,1.8503 0.6219,-2.7256 0.9511,-5.5155 0.9809,-8.3159 0.024,-2.263 -0.1488,-4.5529 -0.5154,-6.8054 -0.4482,-2.7265 -1.1824,-5.4118 -2.1814,-7.9761 -1.0941,-2.813 -2.5078,-5.4973 -4.2017,-7.9801 -1.0134,-1.4827 -2.1392,-2.906 -3.3551,-4.2438" /><path
               id="path104"
               style="fill:#f68712;fill-opacity:1;fill-rule:nonzero;stroke:none"
               d="m 296.3755,508.7511 c -8.8476,-5.0088 -13.6932,-14.366 -13.3679,-23.8681 5.8514,-0.0134 11.7642,1.0576 17.4294,3.2995 -1.8216,0.6824 -3.4195,1.9857 -4.4521,3.8091 -2.3408,4.1345 -0.8868,9.3812 3.2438,11.72 4.1335,2.3398 9.3802,0.8868 11.721,-3.2467 1.0326,-1.8244 1.3273,-3.8657 0.976,-5.7784 4.8398,3.7064 8.8006,8.2257 11.7959,13.2507 -7.9839,5.1662 -18.4956,5.8245 -27.3461,0.8139" /><path
               id="path106"
               style="fill:#80c864;fill-opacity:1;fill-rule:nonzero;stroke:none"
               d="m 322.8108,445.4828 c -0.4175,1.3907 -0.9098,2.7727 -1.4789,4.1383 -0.0164,0.0432 -0.0365,0.0845 -0.0557,0.1267 -0.3628,0.8743 -0.762,1.739 -1.192,2.5979 -0.3349,0.6709 -0.6881,1.336 -1.0604,1.9934 -0.1651,0.2917 -0.3311,0.5787 -0.502,0.8666 -0.5249,0.8733 -1.072,1.7265 -1.6468,2.548 -0.4607,0.668 -0.9415,1.3168 -1.4348,1.9473 -0.0931,0.118 -0.1852,0.2351 -0.2783,0.3522 -7.5885,9.4973 -18.677,15.1069 -30.3078,16.0147 -0.953,0.0759 -1.9098,0.1191 -2.8714,0.1296 -1.0106,0.0134 -2.0231,-0.0125 -3.0385,-0.0739 -1.0778,-0.0633 -2.1594,-0.166 -3.2371,-0.3157 -0.9434,-0.1267 -1.883,-0.288 -2.8235,-0.4809 -1.4712,-0.3003 -2.9358,-0.6804 -4.3878,-1.1439 -0.4213,-0.1363 -0.8436,-0.2774 -1.2649,-0.4261 0.7303,-0.93 1.4914,-1.8273 2.286,-2.6844 0.2592,-0.2831 0.5279,-0.5652 0.7966,-0.8397 2.4914,-2.5528 5.2611,-4.7525 8.2315,-6.5779 2.1248,-1.3071 4.3523,-2.4204 6.6527,-3.3369 2.8072,-1.1104 5.7208,-1.93 8.6931,-2.4396 3.2237,-0.5538 6.5155,-0.7399 9.815,-0.547 2.4175,0.1449 4.8369,0.4913 7.2362,1.0537 0.4165,-0.4818 0.8215,-0.977 1.2112,-1.4847 0.6708,-0.8589 1.3071,-1.7553 1.9069,-2.6881 0.4232,-0.6478 0.8263,-1.3139 1.2131,-1.9972 0.1785,-0.3138 0.3503,-0.6315 0.5182,-0.9482 0.4626,-0.8704 0.8907,-1.7534 1.2793,-2.6469 0.0499,-0.1074 0.097,-0.2169 0.1402,-0.3282 0.5623,-1.3052 1.0422,-2.6334 1.4462,-3.9674 0.0308,-0.0998 0.0605,-0.1997 0.0912,-0.3004 1.3762,0.3829 2.7448,0.8263 4.1018,1.3301 -0.0124,0.0413 -0.0268,0.0864 -0.0393,0.1286" /><path
               id="path108"
               style="fill:#80c864;fill-opacity:1;fill-rule:nonzero;stroke:none"
               d="m 273.8064,471.8399 c 0.8109,0.1622 1.6104,0.2956 2.3791,0.3993 0.9636,0.1334 1.9569,0.2303 2.9694,0.2898 0.9414,0.0566 1.8752,0.0797 2.7831,0.0681 0.8782,-0.0105 1.7621,-0.0499 2.6296,-0.119 9.148,-0.714 17.7586,-4.6056 24.2933,-10.8601 -1.764,-0.3512 -3.5644,-0.5835 -5.3706,-0.6919 -3.0029,-0.1747 -6.0299,-0.007 -8.9906,0.5009 -2.715,0.4665 -5.3984,1.2198 -7.9771,2.239 -2.1114,0.8417 -4.1633,1.8715 -6.0913,3.0567 -2.3878,1.4665 -4.6105,3.1844 -6.6249,5.1172" /><path
               id="path110"
               style="fill:#f68712;fill-opacity:1;fill-rule:nonzero;stroke:none"
               d="m 402.9038,517.4554 c -12.0339,7.0836 -26.3768,6.7746 -37.7523,0.4347 0.263,-0.9328 1.7237,-4.8686 2.0452,-5.7861 10.6019,6.1403 21.3315,6.8073 32.6446,0.1478 11.315,-6.6604 15.9389,-16.366 15.7153,-28.6148 0.9559,0.1651 5.1086,0.7966 6.052,1.0192 0.023,13.0233 -6.6681,25.7136 -18.7048,32.7992" /><path
               id="path112"
               style="fill:#80c864;fill-opacity:1;fill-rule:nonzero;stroke:none"
               d="m 373.57,443.1394 c 0.0317,0.0998 0.0634,0.1987 0.096,0.2985 0.4261,1.3263 0.929,2.6469 1.5125,3.9425 0.0461,0.1104 0.0941,0.2188 0.1459,0.3263 0.404,0.8868 0.8464,1.762 1.3244,2.6238 0.1727,0.3139 0.3503,0.6287 0.5336,0.9406 0.3983,0.6756 0.8129,1.3349 1.2476,1.976 0.6152,0.9223 1.2659,1.8081 1.9511,2.6546 0.3983,0.5019 0.8119,0.9904 1.2361,1.4645 2.3897,-0.6027 4.8015,-0.9923 7.2199,-1.1776 3.2967,-0.2476 6.5923,-0.1142 9.8275,0.383 2.979,0.4568 5.9061,1.2265 8.7286,2.2908 2.3158,0.8781 4.5615,1.954 6.7084,3.2246 3.0001,1.7755 5.8072,3.9272 8.3409,6.4378 0.2735,0.2706 0.547,0.548 0.8109,0.8273 0.8081,0.8426 1.5845,1.7274 2.3312,2.6449 -0.4194,0.1555 -0.8398,0.3033 -1.2582,0.4473 -1.4434,0.4875 -2.9012,0.8925 -4.3667,1.2207 -0.9338,0.2064 -1.8743,0.3829 -2.8158,0.5259 -1.0749,0.168 -2.1555,0.2889 -3.2333,0.3743 -1.0125,0.0739 -2.024,0.1162 -3.0356,0.121 -0.9558,0.007 -1.9165,-0.0192 -2.8724,-0.0816 -11.6442,-0.7112 -22.8258,-6.1336 -30.5736,-15.5013 -0.095,-0.1152 -0.19,-0.2313 -0.285,-0.3465 -0.5029,-0.6228 -0.9943,-1.263 -1.4664,-1.9232 -0.5893,-0.812 -1.1507,-1.6555 -1.6901,-2.5202 -0.1756,-0.2851 -0.3465,-0.5692 -0.5163,-0.858 -0.383,-0.6517 -0.7476,-1.3091 -1.0922,-1.9722 -0.4443,-0.8513 -0.8599,-1.7122 -1.237,-2.5807 -0.0202,-0.0413 -0.0413,-0.0825 -0.0586,-0.1257 -0.5921,-1.3551 -1.1075,-2.7285 -1.548,-4.1124 -0.0134,-0.0422 -0.0278,-0.0864 -0.0413,-0.1286 1.3484,-0.5259 2.7064,-0.9904 4.0759,-1.3964" /><path
               id="path114"
               style="fill:#80c864;fill-opacity:1;fill-rule:nonzero;stroke:none"
               d="m 383.7538,460.5635 c 6.6317,6.1383 15.3103,9.887 24.4689,10.4465 0.8589,0.0566 1.738,0.0815 2.6277,0.0748 0.9002,-0.004 1.8378,-0.0412 2.7985,-0.1113 1.0115,-0.0806 2.0087,-0.1958 2.9406,-0.3407 0.7956,-0.1209 1.595,-0.2678 2.3897,-0.4395 -2.049,-1.9012 -4.3005,-3.5807 -6.7113,-5.0069 -1.9473,-1.1526 -4.0174,-2.1478 -6.1518,-2.9569 -2.5845,-0.9741 -5.2774,-1.6814 -7.9973,-2.0988 -2.9837,-0.4578 -6.0145,-0.5768 -9.0117,-0.3513 -1.7908,0.1372 -3.5864,0.4002 -5.3533,0.7841" /><path
               id="path116"
               style="fill:#f68712;fill-opacity:1;fill-rule:nonzero;stroke:none"
               d="m 397.0314,507.4793 c -8.7613,5.1575 -19.2883,4.6757 -27.3547,-0.357 2.9146,-5.074 6.7986,-9.6586 11.5722,-13.4447 -0.3196,1.9185 0.0105,3.9541 1.0729,5.7602 2.4099,4.0942 7.6806,5.4589 11.7719,3.051 4.0932,-2.4099 5.4579,-7.6806 3.048,-11.7748 -1.0624,-1.8061 -2.6833,-3.0816 -4.5154,-3.7342 5.6297,-2.3379 11.5233,-3.5087 17.3727,-3.5903 0.4828,9.4973 -4.2035,18.9304 -12.9676,24.0898" /><path
               id="path118"
               style="fill:#80c864;fill-opacity:1;fill-rule:nonzero;stroke:none"
               d="m 355.4572,452.9515 c 0.9952,1.0567 1.9472,2.1738 2.8446,3.3494 0.0287,0.0365 0.0547,0.0739 0.0815,0.1123 0.5759,0.7515 1.1248,1.5298 1.6536,2.3312 0.4146,0.6257 0.8129,1.2639 1.1958,1.9146 0.1708,0.2889 0.3359,0.5768 0.5,0.8685 0.4943,0.8906 0.9597,1.7908 1.3839,2.7007 0.3475,0.7322 0.669,1.4731 0.9693,2.2159 0.0547,0.1382 0.1104,0.2774 0.1651,0.4165 4.4301,11.3208 3.7439,23.728 -1.285,34.2551 -0.4108,0.8628 -0.8513,1.7131 -1.3225,2.5509 -0.4952,0.882 -1.0231,1.7467 -1.5836,2.5941 -0.594,0.9022 -1.2236,1.788 -1.8925,2.6469 -0.5816,0.7534 -1.191,1.4856 -1.8273,2.2045 -0.9971,1.1238 -2.0586,2.2016 -3.1853,3.2275 -0.3282,0.2965 -0.6622,0.5912 -1.001,0.8829 -0.4405,-1.0979 -0.8378,-2.2064 -1.1823,-3.3225 -0.1162,-0.3657 -0.2256,-0.7399 -0.3292,-1.1094 -0.9655,-3.4339 -1.4847,-6.933 -1.5807,-10.4177 -0.0691,-2.4934 0.0806,-4.979 0.4367,-7.4301 0.4415,-2.9857 1.1891,-5.9186 2.2342,-8.7488 1.1325,-3.0682 2.6172,-6.0116 4.4329,-8.7737 1.334,-2.0202 2.8446,-3.9415 4.5308,-5.7391 -0.2082,-0.6007 -0.4347,-1.1996 -0.6804,-1.7908 -0.4079,-1.0106 -0.8666,-2.0096 -1.3743,-2.9952 -0.3493,-0.6901 -0.7246,-1.3734 -1.1229,-2.05 -0.1833,-0.3109 -0.3723,-0.619 -0.5624,-0.9223 -0.522,-0.8359 -1.0729,-1.6488 -1.6516,-2.4319 -0.0691,-0.0969 -0.1402,-0.1919 -0.214,-0.286 -0.8494,-1.1382 -1.7602,-2.2188 -2.7132,-3.2361 -0.0719,-0.0759 -0.143,-0.1517 -0.2149,-0.2285 1.0201,-1 2.0873,-1.9645 3.2025,-2.8868 0.0298,0.0317 0.0624,0.0662 0.0922,0.0979" /><path
               id="path120"
               style="fill:#80c864;fill-opacity:1;fill-rule:nonzero;stroke:none"
               d="m 353.7808,508.5691 c 0.5461,-0.6219 1.0615,-1.2466 1.5346,-1.8609 0.5979,-0.7677 1.1785,-1.5787 1.7361,-2.4261 0.5202,-0.787 1.0068,-1.5845 1.4511,-2.3772 0.43,-0.7649 0.8379,-1.55 1.2112,-2.336 3.9559,-8.2794 4.8907,-17.6817 2.7419,-26.4679 -1.1862,1.3513 -2.288,2.7947 -3.2851,4.3043 -1.6526,2.5125 -3.0202,5.2189 -4.0606,8.0366 -0.9539,2.5836 -1.644,5.2852 -2.0499,8.028 -0.3273,2.2487 -0.4616,4.5414 -0.3983,6.8035 0.0768,2.8004 0.453,5.5845 1.119,8.2957" /><path
               id="path122"
               style="fill:#f68712;fill-opacity:1;fill-rule:nonzero;stroke:none"
               d="m 457.8332,419.5753 c 0.118,13.9638 -7.3217,26.2309 -18.4995,32.9114 -0.6766,-0.6938 -3.3551,-3.9271 -3.9886,-4.6642 10.6183,-6.1105 16.5609,-15.0704 16.4505,-28.1964 -0.1104,-13.1298 -6.2036,-21.987 -16.9236,-27.918 0.6209,-0.7448 3.2448,-4.026 3.9089,-4.7304 11.2891,6.4905 18.9342,18.6309 19.0523,32.5976" /><path
               id="path124"
               style="fill:#80c864;fill-opacity:1;fill-rule:nonzero;stroke:none"
               d="m 378.8068,407.8211 c 0.1017,0.0221 0.2044,0.0441 0.3061,0.0662 1.3628,0.2946 2.7573,0.5192 4.171,0.6613 0.118,0.0153 0.237,0.0278 0.3551,0.0364 0.9702,0.0941 1.9491,0.1478 2.9348,0.1661 0.3579,0.007 0.7197,0.0105 1.0806,0.007 0.785,-0.006 1.5643,-0.0355 2.335,-0.0912 1.1065,-0.072 2.1996,-0.1929 3.2755,-0.3628 0.6334,-0.094 1.263,-0.2082 1.8868,-0.3378 0.6727,-2.3714 1.5403,-4.6556 2.5893,-6.8418 1.4338,-2.9789 3.1977,-5.7659 5.2458,-8.3197 1.8849,-2.3513 4.0154,-4.5011 6.3485,-6.4128 1.9184,-1.5673 3.9722,-2.9742 6.1469,-4.1978 3.0375,-1.7112 6.3044,-3.0663 9.7459,-4.0049 0.3705,-0.1017 0.7467,-0.2006 1.121,-0.2889 1.1344,-0.2783 2.2889,-0.5086 3.4569,-0.6958 -0.0758,0.4405 -0.1574,0.8782 -0.2419,1.3129 -0.3004,1.4943 -0.6785,2.9588 -1.1267,4.3917 -0.2879,0.9126 -0.6056,1.8148 -0.952,2.7015 -0.3925,1.0154 -0.8273,2.0106 -1.2928,2.9876 -0.4424,0.9137 -0.9107,1.811 -1.4126,2.6891 -0.4722,0.8321 -0.9751,1.6508 -1.5068,2.4473 -6.4387,9.7286 -16.7249,16.701 -28.7117,18.7269 -0.1478,0.024 -0.2947,0.049 -0.4425,0.0729 -0.7908,0.1248 -1.5912,0.2304 -2.3993,0.3091 -0.9971,0.1036 -2.0086,0.1679 -3.0269,0.2034 -0.3349,0.009 -0.667,0.0154 -1.0019,0.0183 -0.7553,0.006 -1.5077,-0.008 -2.2534,-0.0403 -0.9598,-0.0413 -1.9128,-0.1123 -2.8533,-0.2189 -0.046,-0.003 -0.0921,-0.006 -0.1382,-0.0124 -1.4702,-0.1651 -2.9175,-0.406 -4.336,-0.716 -0.0431,-0.009 -0.0892,-0.0182 -0.1314,-0.0278 0.2178,-1.4309 0.4952,-2.8398 0.8282,-4.2285" /><path
               id="path126"
               style="fill:#80c864;fill-opacity:1;fill-rule:nonzero;stroke:none"
               d="m 398.9883,407.7137 c 8.6317,-2.6747 16.2173,-8.3159 21.2817,-15.9668 0.4789,-0.7159 0.9395,-1.4645 1.3781,-2.238 0.4472,-0.7822 0.8839,-1.6133 1.3033,-2.4799 0.4367,-0.9165 0.835,-1.8379 1.1747,-2.717 0.2937,-0.7495 0.5662,-1.5153 0.8148,-2.2898 -2.6709,0.8244 -5.2516,1.9348 -7.6921,3.3091 -1.9722,1.1104 -3.8686,2.405 -5.6364,3.8494 -2.1363,1.7505 -4.0951,3.7294 -5.8168,5.8763 -1.8878,2.3542 -3.5059,4.9205 -4.8092,7.6288 -0.7773,1.619 -1.4472,3.3062 -1.9981,5.0279" /><path
               id="path128"
               style="fill:#f68712;fill-opacity:1;fill-rule:nonzero;stroke:none"
               d="m 446.2575,419.673 c 0.0854,10.1662 -5.5952,19.0417 -13.9869,23.511 -2.9367,-5.0605 -4.9655,-10.7171 -5.8571,-16.7441 1.5019,1.2361 3.43,1.9684 5.526,1.9511 4.7496,-0.0403 8.5664,-3.9223 8.5271,-8.6691 -0.0403,-4.7496 -3.9224,-8.5673 -8.673,-8.527 -2.095,0.0172 -4.0106,0.7821 -5.4914,2.0432 0.7898,-6.0443 2.7227,-11.7344 5.5768,-16.8401 8.4666,4.3302 14.2931,13.1049 14.3785,23.275" /><path
               id="path130"
               style="fill:#80c864;fill-opacity:1;fill-rule:nonzero;stroke:none"
               d="m 378.2479,428.4134 c 1.4127,-0.334 2.8561,-0.5989 4.3235,-0.7889 0.0451,-0.007 0.0911,-0.0106 0.1372,-0.0144 0.9386,-0.1228 1.8878,-0.2092 2.8465,-0.2668 0.7486,-0.0461 1.5001,-0.072 2.2553,-0.0787 0.3359,-0.002 0.667,-0.002 1.002,0.002 1.0192,0.0173 2.0307,0.0653 3.0308,0.1517 0.808,0.0652 1.6104,0.1573 2.4031,0.2687 0.1487,0.022 0.2965,0.0441 0.4443,0.0652 12.0195,1.8235 22.4209,8.6221 29.0227,18.2403 0.5423,0.787 1.0586,1.5941 1.548,2.4214 0.5173,0.8695 1.001,1.7592 1.455,2.668 0.4846,0.9655 0.9366,1.954 1.3455,2.9617 0.3628,0.881 0.6919,1.7755 0.9952,2.6853 0.4751,1.4251 0.8791,2.8839 1.2035,4.3724 0.0921,0.4328 0.1814,0.8695 0.2639,1.3091 -1.1708,-0.168 -2.3292,-0.3782 -3.4684,-0.6382 -0.3743,-0.0826 -0.7534,-0.1738 -1.1257,-0.2697 -3.456,-0.881 -6.7459,-2.1805 -9.8112,-3.8398 -2.1949,-1.1872 -4.2726,-2.5586 -6.218,-4.0932 -2.3637,-1.8753 -4.5308,-3.9895 -6.4588,-6.3082 -2.0903,-2.5154 -3.8974,-5.2727 -5.3812,-8.2267 -1.0825,-2.166 -1.9923,-4.4348 -2.7054,-6.7938 -0.6248,-0.12 -1.2563,-0.2226 -1.8916,-0.3061 -1.0787,-0.1517 -2.1728,-0.2544 -3.2803,-0.3071 -0.7726,-0.0432 -1.5518,-0.0595 -2.3369,-0.0528 -0.3608,0.003 -0.7226,0.0124 -1.0806,0.0259 -0.9847,0.0345 -1.9636,0.1046 -2.931,0.215 -0.119,0.0105 -0.237,0.0249 -0.3551,0.0422 -1.4108,0.166 -2.8014,0.4146 -4.1594,0.7313 -0.1017,0.024 -0.2025,0.048 -0.3042,0.072 -0.357,-1.383 -0.6584,-2.7899 -0.9002,-4.217 0.0432,-0.0106 0.0892,-0.0202 0.1315,-0.0307" /><path
               id="path132"
               style="fill:#80c864;fill-opacity:1;fill-rule:nonzero;stroke:none"
               d="m 425.5759,457.6739 c -0.2658,-0.7831 -0.5489,-1.5423 -0.8436,-2.2592 -0.3666,-0.9021 -0.7792,-1.811 -1.2341,-2.7169 -0.4214,-0.8436 -0.8686,-1.6642 -1.3321,-2.4454 -0.4482,-0.7553 -0.9242,-1.5 -1.4185,-2.2169 -5.192,-7.5654 -12.8669,-13.0761 -21.5503,-15.6088 0.5767,1.7025 1.2754,3.3792 2.0845,4.9972 1.3503,2.6882 3.0096,5.2257 4.93,7.5347 1.7611,2.1181 3.7554,4.0663 5.9272,5.79 1.7841,1.4069 3.7026,2.6699 5.693,3.7467 2.4636,1.334 5.0635,2.4003 7.7439,3.1786" /><path
               id="path134"
               style="fill:#f68712;fill-opacity:1;fill-rule:nonzero;stroke:none"
               d="m 400.5314,323.0652 c 12.1519,6.8801 19.0561,19.4553 19.2519,32.4767 -0.9386,0.2389 -5.0778,0.9414 -6.0328,1.1219 0.0173,-12.2508 -4.7707,-21.8777 -16.1942,-28.3442 -11.4254,-6.4694 -22.1425,-5.6211 -32.6398,0.6967 -0.334,-0.9098 -1.8638,-4.8225 -2.1421,-5.7506 11.2661,-6.5308 25.6023,-7.0817 37.757,-0.2005" /><path
               id="path136"
               style="fill:#80c864;fill-opacity:1;fill-rule:nonzero;stroke:none"
               d="m 350.8388,385.627 c 0.0701,-0.0778 0.1401,-0.1546 0.2102,-0.2323 0.9367,-1.0327 1.8283,-2.1277 2.6584,-3.2813 0.073,-0.095 0.1421,-0.1909 0.2092,-0.2888 0.5663,-0.7937 1.1027,-1.6143 1.6114,-2.4598 0.1843,-0.3061 0.3685,-0.6171 0.5461,-0.9319 0.3867,-0.6833 0.7505,-1.3724 1.0883,-2.0681 0.4914,-0.9943 0.9328,-2.001 1.3234,-3.0183 0.2352,-0.5951 0.4521,-1.1978 0.6507,-1.8024 -1.7169,-1.7678 -3.2611,-3.6613 -4.6306,-5.6633 -1.8628,-2.7313 -3.3945,-5.6517 -4.5817,-8.7026 -1.0941,-2.8082 -1.8906,-5.7286 -2.3801,-8.7046 -0.3973,-2.4444 -0.5892,-4.9272 -0.5614,-7.4225 0.0365,-3.4856 0.4971,-6.9924 1.4041,-10.4416 0.0979,-0.3724 0.2005,-0.7477 0.3109,-1.1152 0.3254,-1.1219 0.7035,-2.2371 1.1258,-3.3417 0.3435,0.285 0.6823,0.5748 1.0153,0.8656 1.145,1.0068 2.2237,2.0663 3.241,3.1709 0.6459,0.7054 1.2687,1.4319 1.8637,2.1757 0.6824,0.8474 1.3273,1.7227 1.9406,2.6133 0.5701,0.8397 1.1133,1.6948 1.6229,2.5682 0.4837,0.8253 0.9414,1.6699 1.3656,2.5279 5.2055,10.4407 6.1009,22.8354 1.8619,34.2291 -0.0528,0.1392 -0.1056,0.2793 -0.1584,0.4194 -0.2869,0.7476 -0.596,1.4933 -0.9309,2.2323 -0.4098,0.9155 -0.8589,1.8234 -1.3378,2.7227 -0.1594,0.2946 -0.3206,0.5854 -0.4857,0.8772 -0.3723,0.6574 -0.76,1.3023 -1.1612,1.9319 -0.5154,0.81 -1.0538,1.6008 -1.6162,2.3609 -0.0259,0.0384 -0.0508,0.0767 -0.0796,0.1142 -0.8782,1.19 -1.81,2.3234 -2.788,3.3964 -0.0297,0.0326 -0.0604,0.0681 -0.0902,0.0998 -1.1305,-0.904 -2.2112,-1.8484 -3.2477,-2.8311" /><path
               id="path138"
               style="fill:#80c864;fill-opacity:1;fill-rule:nonzero;stroke:none"
               d="m 360.8366,368.0955 c 1.9991,-8.8121 0.907,-18.2029 -3.1872,-26.4142 -0.381,-0.7726 -0.7984,-1.5451 -1.2486,-2.3129 -0.4539,-0.7774 -0.9558,-1.5711 -1.4961,-2.3676 -0.5759,-0.8359 -1.1738,-1.6421 -1.7659,-2.3763 -0.5019,-0.6286 -1.0288,-1.2476 -1.5749,-1.8503 -0.6219,2.7256 -0.9511,5.5155 -0.9808,8.3159 -0.024,2.263 0.1487,4.5529 0.5153,6.8053 0.4482,2.7266 1.1824,5.4119 2.1815,7.9762 1.094,2.8129 2.5077,5.4973 4.2016,7.98 1.0134,1.4828 2.1392,2.906 3.3551,4.2439" /><path
               id="path140"
               style="fill:#f68712;fill-opacity:1;fill-rule:nonzero;stroke:none"
               d="m 394.8282,333.1389 c 8.8476,5.0087 13.6931,14.3659 13.3678,23.8681 -5.8514,0.0134 -11.7642,-1.0577 -17.4293,-3.2995 1.8215,-0.6824 3.4194,-1.9857 4.4521,-3.8091 2.3407,-4.1345 0.8867,-9.3812 -3.2439,-11.7201 -4.1335,-2.3397 -9.3802,-0.8867 -11.721,3.2467 -1.0326,1.8245 -1.3272,3.8658 -0.976,5.7785 -4.8398,-3.7064 -8.8006,-8.2257 -11.7958,-13.2508 7.9838,-5.1661 18.4956,-5.8245 27.3461,-0.8138" /><path
               id="path142"
               style="fill:#80c864;fill-opacity:1;fill-rule:nonzero;stroke:none"
               d="m 368.3929,396.4071 c 0.4174,-1.3906 0.9098,-2.7726 1.4789,-4.1383 0.0163,-0.0431 0.0364,-0.0844 0.0556,-0.1266 0.3628,-0.8743 0.762,-1.739 1.192,-2.598 0.3349,-0.6708 0.6881,-1.3359 1.0605,-1.9933 0.1651,-0.2918 0.3311,-0.5787 0.5019,-0.8666 0.525,-0.8734 1.072,-1.7266 1.6469,-2.5481 0.4606,-0.6679 0.9415,-1.3167 1.4348,-1.9472 0.093,-0.1181 0.1852,-0.2352 0.2783,-0.3522 7.5884,-9.4974 18.677,-15.1069 30.3077,-16.0148 0.953,-0.0758 1.9098,-0.119 2.8715,-0.1295 1.0106,-0.0135 2.0231,0.0124 3.0384,0.0739 1.0778,0.0633 2.1594,0.166 3.2371,0.3157 0.9434,0.1267 1.883,0.2879 2.8235,0.4808 1.4713,0.3004 2.9358,0.6805 4.3878,1.144 0.4213,0.1363 0.8436,0.2774 1.2649,0.4261 -0.7303,0.93 -1.4914,1.8273 -2.286,2.6843 -0.2591,0.2831 -0.5278,0.5653 -0.7966,0.8398 -2.4914,2.5528 -5.2611,4.7525 -8.2314,6.5779 -2.1248,1.3071 -4.3523,2.4203 -6.6528,3.3369 -2.8071,1.1104 -5.7208,1.93 -8.693,2.4396 -3.2237,0.5537 -6.5155,0.7399 -9.815,0.547 -2.4176,-0.1449 -4.837,-0.4914 -7.2363,-1.0538 -0.4165,0.4818 -0.8215,0.977 -1.2111,1.4847 -0.6709,0.859 -1.3072,1.7553 -1.907,2.6882 -0.4223,0.6478 -0.8263,1.3138 -1.2131,1.9971 -0.1785,0.3139 -0.3503,0.6315 -0.5182,0.9482 -0.4626,0.8705 -0.8906,1.7534 -1.2793,2.6469 -0.0499,0.1075 -0.0969,0.2169 -0.1401,0.3282 -0.5624,1.3053 -1.0423,2.6335 -1.4463,3.9675 -0.0307,0.0998 -0.0605,0.1996 -0.0912,0.3004 -1.3762,-0.3829 -2.7448,-0.8263 -4.1018,-1.3302 0.0125,-0.0412 0.0269,-0.0863 0.0394,-0.1286" /><path
               id="path144"
               style="fill:#80c864;fill-opacity:1;fill-rule:nonzero;stroke:none"
               d="m 417.3972,370.05 c -0.811,-0.1622 -1.6104,-0.2956 -2.3792,-0.3992 -0.9635,-0.1334 -1.9568,-0.2303 -2.9684,-0.2898 -0.9424,-0.0567 -1.8762,-0.0797 -2.7841,-0.0682 -0.8781,0.0106 -1.762,0.0499 -2.6296,0.119 -9.148,0.7141 -17.7576,4.6057 -24.2932,10.8601 1.7639,0.3513 3.5643,0.5835 5.3705,0.692 3.003,0.1747 6.0299,0.007 8.9906,-0.501 2.7151,-0.4664 5.3984,-1.2198 7.9772,-2.239 2.1113,-0.8417 4.1632,-1.8714 6.0913,-3.0567 2.3877,-1.4664 4.6104,-3.1843 6.6249,-5.1172" /><path
               id="path146"
               style="fill:#f68712;fill-opacity:1;fill-rule:nonzero;stroke:none"
               d="m 288.3001,324.4345 c 12.0338,-7.0837 26.3767,-6.7746 37.7522,-0.4348 -0.263,0.9329 -1.7236,4.8686 -2.0451,5.7861 -10.602,-6.1402 -21.3316,-6.8072 -32.6447,-0.1478 -11.315,6.6604 -15.9389,16.366 -15.7153,28.6149 -0.9559,-0.1651 -5.1086,-0.7966 -6.052,-1.0193 -0.023,-13.0233 6.6681,-25.7136 18.7049,-32.7991" /><path
               id="path148"
               style="fill:#80c864;fill-opacity:1;fill-rule:nonzero;stroke:none"
               d="m 317.6338,398.7505 c -0.0317,-0.0999 -0.0633,-0.1987 -0.096,-0.2985 -0.4261,-1.3263 -0.929,-2.6469 -1.5125,-3.9425 -0.046,-0.1104 -0.094,-0.2188 -0.1459,-0.3263 -0.404,-0.8868 -0.8464,-1.7621 -1.3244,-2.6239 -0.1727,-0.3138 -0.3503,-0.6286 -0.5336,-0.9395 -0.3982,-0.6766 -0.8128,-1.336 -1.2476,-1.977 -0.6152,-0.9223 -1.2659,-1.8081 -1.9511,-2.6546 -0.3983,-0.5019 -0.8119,-0.9904 -1.2361,-1.4645 -2.3897,0.6027 -4.8014,0.9923 -7.2199,1.1775 -3.2966,0.2476 -6.5923,0.1142 -9.8275,-0.3829 -2.9789,-0.4568 -5.9061,-1.2265 -8.7286,-2.2908 -2.3158,-0.8782 -4.5615,-1.954 -6.7084,-3.2247 -3,-1.7754 -5.8072,-3.9271 -8.3408,-6.4377 -0.2736,-0.2707 -0.5471,-0.548 -0.811,-0.8273 -0.809,-0.8426 -1.5845,-1.7275 -2.3311,-2.645 0.4193,-0.1554 0.8397,-0.3032 1.2581,-0.4472 1.4434,-0.4875 2.9012,-0.8925 4.3658,-1.2207 0.9347,-0.2064 1.8753,-0.383 2.8167,-0.526 1.0749,-0.1679 2.1555,-0.2888 3.2333,-0.3743 1.0125,-0.0739 2.024,-0.1161 3.0356,-0.1209 0.9559,-0.007 1.9165,0.0192 2.8724,0.0816 11.6442,0.7111 22.8258,6.1335 30.5736,15.5013 0.095,0.1151 0.19,0.2313 0.2841,0.3464 0.5038,0.6229 0.9952,1.263 1.4674,1.9233 0.5892,0.8119 1.1507,1.6555 1.69,2.5202 0.1757,0.285 0.3465,0.5691 0.5164,0.858 0.3829,0.6516 0.7476,1.309 1.0921,1.9722 0.4444,0.8513 0.8599,1.7121 1.2371,2.5807 0.0201,0.0412 0.0412,0.0825 0.0585,0.1257 0.5922,1.3551 1.1075,2.7285 1.548,4.1124 0.0135,0.0422 0.0279,0.0863 0.0413,0.1286 -1.3484,0.5259 -2.7064,0.9904 -4.0759,1.3964" /><path
               id="path150"
               style="fill:#80c864;fill-opacity:1;fill-rule:nonzero;stroke:none"
               d="m 307.4501,381.3264 c -6.6316,-6.1383 -15.3103,-9.887 -24.4689,-10.4465 -0.8589,-0.0566 -1.738,-0.0816 -2.6277,-0.0749 -0.9002,0.004 -1.8378,0.0413 -2.7985,0.1114 -1.0115,0.0806 -2.0087,0.1957 -2.9405,0.3407 -0.7956,0.1209 -1.5951,0.2677 -2.3897,0.4395 2.049,1.9012 4.3004,3.5807 6.7112,5.0068 1.9473,1.1527 4.0174,2.1479 6.1518,2.9569 2.5845,0.9741 5.2775,1.6814 7.9983,2.0989 2.9827,0.4578 6.0135,0.5768 9.0107,0.3513 1.7908,-0.1373 3.5874,-0.4002 5.3533,-0.7841" /><path
               id="path152"
               style="fill:#f68712;fill-opacity:1;fill-rule:nonzero;stroke:none"
               d="m 294.1725,334.4106 c 8.7613,-5.1575 19.2884,-4.6757 27.3548,0.357 -2.9147,5.074 -6.7986,9.6586 -11.5723,13.4446 0.3196,-1.9184 -0.0105,-3.954 -1.0729,-5.7602 -2.4099,-4.0941 -7.6806,-5.4588 -11.7719,-3.0509 -4.0931,2.4098 -5.4579,7.6806 -3.048,11.7747 1.0624,1.8062 2.6833,3.0817 4.5154,3.7343 -5.6296,2.3378 -11.5232,3.5087 -17.3727,3.5903 -0.4827,-9.4974 4.2035,-18.9304 12.9676,-24.0898" /><path
               id="path154"
               style="fill:#80c864;fill-opacity:1;fill-rule:nonzero;stroke:none"
               d="m 335.7467,388.9383 c -0.9953,-1.0566 -1.9473,-2.1737 -2.8446,-3.3494 -0.0288,-0.0364 -0.0547,-0.0748 -0.0816,-0.1122 -0.5758,-0.7515 -1.1248,-1.5298 -1.6536,-2.3312 -0.4146,-0.6257 -0.8129,-1.2639 -1.1958,-1.9146 -0.1708,-0.2889 -0.3359,-0.5768 -0.5,-0.8686 -0.4943,-0.8906 -0.9597,-1.7908 -1.3839,-2.7006 -0.3474,-0.7322 -0.6689,-1.4731 -0.9693,-2.216 -0.0547,-0.1382 -0.1104,-0.2773 -0.1651,-0.4165 -4.43,-11.3208 -3.7438,-23.7279 1.2851,-34.255 0.4107,-0.8628 0.8512,-1.7131 1.3225,-2.551 0.4952,-0.8819 1.023,-1.7466 1.5835,-2.5941 0.594,-0.9021 1.2236,-1.7879 1.8925,-2.6468 0.5816,-0.7534 1.191,-1.4857 1.8273,-2.2045 0.9972,-1.1238 2.0586,-2.2025 3.1853,-3.2275 0.3282,-0.2966 0.6622,-0.5912 1.001,-0.883 0.4405,1.098 0.8378,2.2064 1.1824,3.3226 0.1161,0.3656 0.2255,0.7399 0.3291,1.1094 0.9655,3.4339 1.4847,6.933 1.5807,10.4177 0.0691,2.4933 -0.0797,4.979 -0.4367,7.4301 -0.4414,2.9857 -1.1891,5.9185 -2.2332,8.7487 -1.1335,3.0682 -2.6181,6.0117 -4.4339,8.7737 -1.334,2.0202 -2.8446,3.9416 -4.5308,5.7391 0.2082,0.6008 0.4347,1.1997 0.6804,1.7908 0.4079,1.0106 0.8666,2.0097 1.3743,2.9953 0.3494,0.69 0.7246,1.3734 1.1229,2.05 0.1833,0.3109 0.3724,0.619 0.5624,0.9222 0.5221,0.836 1.073,1.6488 1.6517,2.432 0.0691,0.0969 0.1401,0.1919 0.214,0.286 0.8503,1.1382 1.7601,2.2188 2.7131,3.2361 0.072,0.0758 0.143,0.1516 0.215,0.2284 -1.0202,1 -2.0874,1.9646 -3.2026,2.8868 -0.0298,-0.0316 -0.0624,-0.0662 -0.0921,-0.0979" /><path
               id="path156"
               style="fill:#80c864;fill-opacity:1;fill-rule:nonzero;stroke:none"
               d="m 337.4231,333.3207 c -0.5461,0.6219 -1.0615,1.2467 -1.5346,1.8609 -0.5979,0.7678 -1.1785,1.5788 -1.7361,2.4262 -0.5202,0.787 -1.0068,1.5845 -1.4511,2.3772 -0.43,0.7649 -0.8378,1.5499 -1.2112,2.3359 -3.9559,8.2795 -4.8907,17.6818 -2.7419,26.468 1.1862,-1.3513 2.288,-2.7947 3.2851,-4.3043 1.6527,-2.5126 3.0203,-5.219 4.0606,-8.0367 0.9539,-2.5835 1.644,-5.2851 2.0499,-8.028 0.3273,-2.2486 0.4617,-4.5413 0.3983,-6.8034 -0.0768,-2.8004 -0.453,-5.5846 -1.119,-8.2958" /></g></g></g></g></g></svg>